<svg fill="#000000" xmlns="http://www.w3.org/2000/svg"  viewBox="0 0 16 16" width="16px" height="16px"><path d="M 3.5 2 A 0.50005 0.50005 0 0 0 3 2.5 L 3 7 L 4 7 L 4 3 L 7 3 L 7 7 L 8 7 L 8 3 L 11 3 L 11 7 L 12 7 L 12 2.5 A 0.50005 0.50005 0 0 0 11.5 2 L 3.5 2 z M 2.5 8 C 1.6774686 8 1 8.6774686 1 9.5 L 1 10 L 2 10 L 2 9.5 C 2 9.2185314 2.2185314 9 2.5 9 L 3 9 L 3 11 L 3 13 L 2 13 L 2 14 L 13 14 L 13 13 L 12 13 L 12 9 L 12.5 9 C 12.781469 9 13 9.2185314 13 9.5 L 13 10 L 14 10 L 14 9.5 C 14 8.6774686 13.322531 8 12.5 8 L 2.5 8 z M 4 9 L 5 9 L 5 13 L 4 13 L 4 11 L 4 9 z M 6 9 L 7 9 L 7 13 L 6 13 L 6 9 z M 8 9 L 9 9 L 9 13 L 8 13 L 8 9 z M 10 9 L 11 9 L 11 13 L 10 13 L 10 9 z"/></svg>