<svg fill="#000000" xmlns="http://www.w3.org/2000/svg"  viewBox="0 0 16 16" width="16px" height="16px"><path d="M 8 1.3183594 L 0.66015625 8.1328125 L 1.3398438 8.8671875 L 2 8.2539062 L 2 14 L 9 14 L 11.5 14 L 14 14 L 14 8.2539062 L 14.660156 8.8671875 L 15.339844 8.1328125 L 12 5.03125 L 12 2 L 11 2 L 11 4.1035156 L 8 1.3183594 z M 8 2.6816406 L 13 7.3261719 L 13 13 L 12 13 L 12 8 L 8 8 L 8 13 L 3 13 L 3 7.3261719 L 8 2.6816406 z M 4 8 L 4 8.5 L 4 11 L 7 11 L 7 8 L 4 8 z M 5 9 L 6 9 L 6 10 L 5 10 L 5 9 z M 9 9 L 11 9 L 11 13 L 9 13 L 9 9 z"/></svg>