<svg fill="#000000" xmlns="http://www.w3.org/2000/svg"  viewBox="0 0 16 16" width="16px" height="16px"><path d="M 3.5 2 C 2.6774686 2 2 2.6774686 2 3.5 L 2 12.5 C 2 13.322531 2.6774686 14 3.5 14 L 12.5 14 C 13.322531 14 14 13.322531 14 12.5 L 14 3.5 C 14 2.6774686 13.322531 2 12.5 2 L 10 2 L 10 3 L 12.5 3 C 12.781469 3 13 3.2185314 13 3.5 L 13 8 L 11 8 L 11 9 L 13 9 L 13 12.5 C 13 12.781469 12.781469 13 12.5 13 L 8 13 L 8 9 L 9 9 L 9 8 L 5 8 L 5 9 L 7 9 L 7 13 L 3.5 13 C 3.2185314 13 3 12.781469 3 12.5 L 3 3.5 C 3 3.2185314 3.2185314 3 3.5 3 L 5.875 3 L 9.515625 4.9414062 L 9.984375 4.0585938 L 6.234375 2.0585938 A 0.50005 0.50005 0 0 0 6 2 L 3.5 2 z"/></svg>