<svg fill="#000000" xmlns="http://www.w3.org/2000/svg"  viewBox="0 0 16 16" width="16px" height="16px"><path d="M 8 1.3183594 L 0.66015625 8.1328125 L 1.3398438 8.8671875 L 8 2.6816406 L 14.660156 8.8671875 L 15.339844 8.1328125 L 8 1.3183594 z M 6.5 7 C 5.6774686 7 5 7.6774686 5 8.5 L 5 10.09375 C 4.4209662 10.302226 4 10.853139 4 11.5 L 4 12.5 L 4 13 L 4 14 L 5 14 L 5 13 L 11 13 L 11 14 L 12 14 L 12 13 L 12 12.5 L 12 11.5 C 12 10.853139 11.579034 10.302226 11 10.09375 L 11 8.5 C 11 7.6774686 10.322531 7 9.5 7 L 6.5 7 z M 6.5 8 L 9.5 8 C 9.7814686 8 10 8.2185314 10 8.5 L 10 10 L 6 10 L 6 8.5 C 6 8.2185314 6.2185314 8 6.5 8 z M 2 9 L 2 10 L 3 10 L 3 9 L 2 9 z M 13 9 L 13 10 L 14 10 L 14 9 L 13 9 z M 2 11 L 2 12 L 3 12 L 3 11 L 2 11 z M 5.5 11 L 10.5 11 C 10.781469 11 11 11.218531 11 11.5 L 11 12 L 5 12 L 5 11.5 C 5 11.218531 5.2185314 11 5.5 11 z M 13 11 L 13 12 L 14 12 L 14 11 L 13 11 z M 2 13 L 2 14 L 3 14 L 3 13 L 2 13 z M 13 13 L 13 14 L 14 14 L 14 13 L 13 13 z"/></svg>