<svg fill="#000000" xmlns="http://www.w3.org/2000/svg"  viewBox="0 0 16 16" width="16px" height="16px"><path d="M 7.9746094 3.0371094 A 0.50005 0.50005 0 0 0 7.6601562 3.1699219 L 0.16015625 10.132812 A 0.50005 0.50005 0 0 0 0.5 11 L 2 11 L 2 14 L 3 14 L 3 11 L 13 11 L 13 14 L 14 14 L 14 11 L 15.5 11 A 0.50005 0.50005 0 0 0 15.839844 10.132812 L 13 7.4960938 L 13 4 L 12 4 L 12 6.5683594 L 8.3398438 3.1699219 A 0.50005 0.50005 0 0 0 7.9746094 3.0371094 z M 8 4.21875 L 14.226562 10 L 1.7734375 10 L 8 4.21875 z"/></svg>