<?xml version="1.0"?><svg fill="#000000" xmlns="http://www.w3.org/2000/svg"  viewBox="0 0 16 16" width="16px" height="16px">    <path d="M 7.3710938 1.0527344 L 0.025390625 8.2675781 L 0.72460938 8.9824219 L 7.3789062 2.4472656 L 14.152344 8.984375 L 14.847656 8.265625 L 7.3710938 1.0527344 z M 2 9 L 2 10 L 3 10 L 3 9 L 2 9 z M 12 9 L 12 10 L 13 10 L 13 9 L 12 9 z M 2 11 L 2 12 L 3 12 L 3 11 L 2 11 z M 12 11 L 12 12 L 13 12 L 13 11 L 12 11 z M 2 13 L 2 14 L 3 14 L 3 13 L 2 13 z M 4 13 L 4 14 L 5 14 L 5 13 L 4 13 z M 6 13 L 6 14 L 7 14 L 7 13 L 6 13 z M 8 13 L 8 14 L 9 14 L 9 13 L 8 13 z M 10 13 L 10 14 L 11 14 L 11 13 L 10 13 z M 12 13 L 12 14 L 13 14 L 13 13 L 12 13 z"/></svg>